<svg width="190" height="136" viewBox="0 0 190 136" fill="none" xmlns="http://www.w3.org/2000/svg">
<path fill-rule="evenodd" clip-rule="evenodd" d="M18.2969 0.043219C18.5493 -0.068933 18.8448 0.0447135 18.9569 0.297056L22.3285 7.88314L22.6695 7.30809L22.8314 7.52339L26.0431 0.297056C26.1552 0.0447135 26.4507 -0.068933 26.7031 0.043219C26.9554 0.155371 27.0691 0.450852 26.9569 0.703194L23.5192 8.43804L24.0159 9.0986L42.6391 33.8638H75.411L96.1483 9.18995L93.0431 2.20319C92.9309 1.95085 93.0446 1.65537 93.2969 1.54322C93.5493 1.43107 93.8448 1.54471 93.9569 1.79706L96.8641 8.33828L97.7095 7.33241L98.1848 8.22824L101.043 1.79706C101.155 1.54471 101.451 1.43107 101.703 1.54322C101.955 1.65537 102.069 1.95085 101.957 2.20319L98.7803 9.35062L117.825 45.2467L118 45.5764V45.9497V53.5001C118 54.3286 117.328 55.0001 116.5 55.0001C115.672 55.0001 115 54.3286 115 53.5001V46.323L97.1441 12.6678L77.2581 36.3289L76.8085 36.8638H76.1098H41.8902H41.1414L40.6914 36.2653L22.9647 12.6922L3 46.361V98.8336L62.6461 132.28L115.766 102.474C116.488 102.068 117.403 102.325 117.808 103.048C118.214 103.77 117.956 104.684 117.234 105.09L63.3804 135.308L62.6466 135.72L61.9127 135.308L0.766347 101.021L0 100.591V99.7122V45.9497V45.5384L0.209777 45.1846L21.5269 9.23506L21.703 8.93799L18.0431 0.703194C17.9309 0.450852 18.0446 0.155371 18.2969 0.043219ZM10 66.0001C10 65.1717 9.32843 64.5001 8.5 64.5001C7.67157 64.5001 7 65.1717 7 66.0001V95.0001V95.8805L7.76865 96.3098L46.2687 117.81C46.9919 118.214 47.9057 117.955 48.3096 117.231C48.7135 116.508 48.4546 115.594 47.7313 115.19L10 94.1197V66.0001Z" fill="white"/>
<g filter="url(#filter0_d_606_2)">
<path d="M44.3594 50.3048C44.5938 50.3517 44.7109 50.5157 44.7109 50.797C44.7344 51.0782 43.4102 55.9298 40.7383 65.3517L51.6016 52.5197C51.8125 52.2618 52.1172 52.1329 52.5156 52.1329C52.9375 52.1329 53.3125 52.3322 53.6406 52.7306C53.9922 53.129 54.1562 53.5157 54.1328 53.8907C54.1328 54.3126 53.1953 55.6017 51.3203 57.7579L45.4844 64.8243C46.7031 75.6056 47.6406 82.2618 48.2969 84.7931C48.9766 87.3009 49.668 89.3986 50.3711 91.0861C51.0977 92.7736 52.1992 94.1915 53.6758 95.34C54.3086 95.8322 54.918 96.172 55.5039 96.3595C56.0898 96.5704 56.3945 96.7814 56.418 96.9923C56.3945 97.297 55.9727 97.4493 55.1523 97.4493C52.668 97.4493 50.3477 95.879 48.1914 92.7384C47.0664 91.0743 46.082 88.8947 45.2383 86.1993C44.3945 83.504 43.7266 80.3517 43.2344 76.7423C42.7656 73.1095 42.4375 70.5197 42.25 68.9728L38.418 73.965C38.043 75.3712 37.2227 78.3009 35.957 82.754C34.6914 87.1837 33.9414 89.8439 33.707 90.7345L33.2148 92.5978C33.0273 93.3243 32.8398 93.6876 32.6523 93.6876C31.9961 93.6876 31.4688 93.3126 31.0703 92.5626C30.6719 91.8126 30.4609 91.2736 30.4375 90.9454C30.4375 89.1642 32.8984 79.5079 37.8203 61.9767L40.457 52.7306C40.6445 52.1681 41.0078 51.7228 41.5469 51.3947C42.8594 50.6681 43.7969 50.3048 44.3594 50.3048ZM54.3789 94.1798C54.3789 96.0782 54.7539 97.9064 55.5039 99.6642C56.7695 102.617 58.6445 104.094 61.1289 104.094C63.0742 104.094 64.7031 103.59 66.0156 102.582C67.3516 101.598 68.9219 99.9689 70.7266 97.6954C71.2891 96.9689 71.875 96.7228 72.4844 96.9572C73.0938 97.1681 73.3984 97.6486 73.3984 98.3986C73.3984 100.602 72.0859 102.488 69.4609 104.059C66.8594 105.629 64.375 106.414 62.0078 106.414C55 106.414 51.4961 102.266 51.4961 93.9689C51.4961 90.3361 52.1758 86.5509 53.5352 82.6134L53.8867 81.5939C58.2695 69.0314 61.668 60.6056 64.082 56.3165C65.7695 53.2228 67.5977 51.6759 69.5664 51.6759C72.3555 51.6993 73.7734 52.7072 73.8203 54.6993C73.8203 55.9415 72.9883 57.9103 71.3242 60.6056C69.6602 63.2775 66.3203 67.9532 61.3047 74.6329C60.0391 76.0626 58.9141 77.6798 57.9297 79.4845C55.5625 83.9376 54.3789 88.8361 54.3789 94.1798ZM60.8477 70.6954C61.1992 70.672 62.8164 68.1407 65.6992 63.1017C68.6055 58.0392 70.0469 55.4259 70.0234 55.2618C70 55.0743 69.9062 54.9806 69.7422 54.9806C69.5781 54.9572 69.4727 54.9689 69.4258 55.0157C68.6523 55.4845 67.0117 57.9806 64.5039 62.504C62.0195 67.004 60.7773 69.6759 60.7773 70.5197C60.7773 70.59 60.8008 70.6486 60.8477 70.6954ZM74.9453 74.7736C75.4141 74.7032 76.4219 73.6954 77.9688 71.7501C79.5156 69.8048 80.2891 68.2814 80.2891 67.1798C80.2891 67.0157 80.2305 66.8282 80.1133 66.6173C79.6445 67.0861 78.6602 68.422 77.1602 70.6251C75.6836 72.8282 74.9453 74.2111 74.9453 74.7736ZM88.9375 80.0118C90.1094 78.7462 90.7656 78.5236 90.9062 79.3439C90.9062 79.6486 90.7188 80.1525 90.3438 80.8556C89.1953 82.9884 87.4375 85.2501 85.0703 87.6407C81.3203 91.4376 78.0039 93.3361 75.1211 93.3361C73.7617 93.3361 72.6016 92.9493 71.6406 92.1759C69.8359 90.6993 68.9336 88.1329 68.9336 84.4767C68.9336 82.3907 69.5664 79.4611 70.832 75.6876C72.1211 71.8907 74.0898 68.4572 76.7383 65.3868C77.9102 63.8868 79.1289 63.1368 80.3945 63.1368C81.0039 63.1368 81.6367 63.2657 82.293 63.5236C83.8398 64.1564 84.6133 65.1759 84.6133 66.5822C84.6133 66.7931 84.543 67.1329 84.4023 67.6017C83.4414 69.5001 81.8945 71.6915 79.7617 74.1759C77.6289 76.6603 75.4609 78.6407 73.2578 80.1173C72.5078 82.8361 72.1328 84.9572 72.1328 86.4806C72.1328 88.004 72.168 88.9767 72.2383 89.3986C72.4492 90.3829 73.2344 90.8751 74.5938 90.8751C75.9531 90.8751 77.5234 90.254 79.3047 89.0118C81.0859 87.7462 82.9844 86.0822 85 84.0197C87.0156 81.9572 88.1523 80.797 88.4102 80.5392C88.6914 80.2814 88.8672 80.1056 88.9375 80.0118ZM99.7305 65.6329C100.949 65.6329 102.566 65.3165 104.582 64.6837C106.621 64.0509 108.027 63.7697 108.801 63.84C109.598 63.9103 110.125 64.2267 110.383 64.7892C110.664 65.3517 110.629 65.9025 110.277 66.4415C109.926 66.9572 109.176 67.2501 108.027 67.3204H102.508C101.383 67.3204 100.668 67.6837 100.363 68.4103C100.316 68.4572 100.094 69.6642 99.6953 72.0314C99.3203 74.3986 99.0977 75.7462 99.0273 76.0743C97.8789 81.6759 96.2852 85.9415 94.2461 88.8712L94.2109 88.9064C92.1016 91.9532 90.4258 93.4767 89.1836 93.4767C87.6367 93.4064 86.8047 92.3517 86.6875 90.3126C86.8047 87.6876 87.9414 83.0704 90.0977 76.4611C92.2539 69.8282 94.0469 65.5626 95.4766 63.6642C95.875 63.1251 96.3203 62.8556 96.8125 62.8556C97.3281 62.8556 97.6562 62.8673 97.7969 62.8907C98.2656 62.9845 98.5 63.465 98.5 64.3322C98.5234 65.1759 98.9336 65.6095 99.7305 65.6329ZM97.2695 67.3204C96.2852 67.3204 94.8555 70.2501 92.9805 76.1095C91.1055 81.9689 90.1445 85.3322 90.0977 86.1993C90.0742 87.0431 90.1562 87.465 90.3438 87.465C91.2109 87.465 92.7109 85.3556 94.8438 81.1368C96.9766 76.8947 98.043 73.2618 98.043 70.2384C97.9258 68.4572 97.668 67.4845 97.2695 67.3204ZM111.332 67.3204C110.16 67.5079 108.648 70.4376 106.797 76.1095C104.945 81.7814 104.02 85.1329 104.02 86.1642C104.02 87.1954 104.113 87.7111 104.301 87.7111C105.285 87.7111 106.82 85.6017 108.906 81.3829C110.992 77.1407 112.035 73.2618 112.035 69.7462C112.035 68.1525 111.801 67.3439 111.332 67.3204ZM110.77 62.9611C111.426 62.9611 111.988 63.1486 112.457 63.5236C113.277 64.2267 113.688 65.5861 113.688 67.6017C113.688 76.8126 112.047 83.715 108.766 88.3087L108.273 89.047C106.234 92.0001 104.594 93.4767 103.352 93.4767C101.828 93.3126 100.949 92.1993 100.715 90.1368C100.715 88.4259 101.406 84.9572 102.789 79.7306C104.195 74.504 105.801 69.9806 107.605 66.1603C108.637 64.0509 109.691 62.9845 110.77 62.9611ZM132.109 50.3048C132.344 50.3517 132.461 50.5157 132.461 50.797C132.484 51.0782 131.16 55.9298 128.488 65.3517L139.352 52.5197C139.562 52.2618 139.867 52.1329 140.266 52.1329C140.688 52.1329 141.062 52.3322 141.391 52.7306C141.742 53.129 141.906 53.5157 141.883 53.8907C141.883 54.3126 140.945 55.6017 139.07 57.7579L133.234 64.8243C134.453 75.6056 135.391 82.2618 136.047 84.7931C136.727 87.3009 137.418 89.3986 138.121 91.0861C138.848 92.7736 139.949 94.1915 141.426 95.34C142.059 95.8322 142.668 96.172 143.254 96.3595C143.84 96.5704 144.145 96.7814 144.168 96.9923C144.145 97.297 143.723 97.4493 142.902 97.4493C140.418 97.4493 138.098 95.879 135.941 92.7384C134.816 91.0743 133.832 88.8947 132.988 86.1993C132.145 83.504 131.477 80.3517 130.984 76.7423C130.516 73.1095 130.188 70.5197 130 68.9728L126.168 73.965C125.793 75.3712 124.973 78.3009 123.707 82.754C122.441 87.1837 121.691 89.8439 121.457 90.7345L120.965 92.5978C120.777 93.3243 120.59 93.6876 120.402 93.6876C119.746 93.6876 119.219 93.3126 118.82 92.5626C118.422 91.8126 118.211 91.2736 118.188 90.9454C118.188 89.1642 120.648 79.5079 125.57 61.9767L128.207 52.7306C128.395 52.1681 128.758 51.7228 129.297 51.3947C130.609 50.6681 131.547 50.3048 132.109 50.3048ZM147.93 74.7736C148.398 74.7032 149.406 73.6954 150.953 71.7501C152.5 69.8048 153.273 68.2814 153.273 67.1798C153.273 67.0157 153.215 66.8282 153.098 66.6173C152.629 67.0861 151.645 68.422 150.145 70.6251C148.668 72.8282 147.93 74.2111 147.93 74.7736ZM161.922 80.0118C163.094 78.7462 163.75 78.5236 163.891 79.3439C163.891 79.6486 163.703 80.1525 163.328 80.8556C162.18 82.9884 160.422 85.2501 158.055 87.6407C154.305 91.4376 150.988 93.3361 148.105 93.3361C146.746 93.3361 145.586 92.9493 144.625 92.1759C142.82 90.6993 141.918 88.1329 141.918 84.4767C141.918 82.3907 142.551 79.4611 143.816 75.6876C145.105 71.8907 147.074 68.4572 149.723 65.3868C150.895 63.8868 152.113 63.1368 153.379 63.1368C153.988 63.1368 154.621 63.2657 155.277 63.5236C156.824 64.1564 157.598 65.1759 157.598 66.5822C157.598 66.7931 157.527 67.1329 157.387 67.6017C156.426 69.5001 154.879 71.6915 152.746 74.1759C150.613 76.6603 148.445 78.6407 146.242 80.1173C145.492 82.8361 145.117 84.9572 145.117 86.4806C145.117 88.004 145.152 88.9767 145.223 89.3986C145.434 90.3829 146.219 90.8751 147.578 90.8751C148.938 90.8751 150.508 90.254 152.289 89.0118C154.07 87.7462 155.969 86.0822 157.984 84.0197C160 81.9572 161.137 80.797 161.395 80.5392C161.676 80.2814 161.852 80.1056 161.922 80.0118ZM172.012 64.8243L184.633 64.5431C184.891 64.5431 185.172 64.7775 185.477 65.2462C185.781 65.6915 185.945 66.3009 185.969 67.0743C185.945 67.59 185.277 67.8595 183.965 67.8829C180.074 67.9767 175.363 68.4454 169.832 69.2892C169.434 70.4376 168.789 72.09 167.898 74.2462C163.984 83.715 162.027 90.3595 162.027 94.1798C162.027 96.0782 162.391 97.9064 163.117 99.6642C164.383 102.617 166.27 104.094 168.777 104.094C170.723 104.094 172.352 103.59 173.664 102.582C175 101.598 176.57 99.9689 178.375 97.6954C178.938 96.9689 179.523 96.7111 180.133 96.922C180.719 97.1798 181.012 97.6837 181.012 98.4337C181.012 100.59 179.77 102.383 177.285 103.813C174.801 105.266 172.129 105.992 169.27 105.992C166.434 105.992 163.973 104.949 161.887 102.863C159.824 100.777 158.793 98.0001 158.793 94.5314C158.793 92.2111 159.086 89.7267 159.672 87.0782C160.258 84.4298 161.324 81.1368 162.871 77.1993C164.418 73.2384 165.426 70.6017 165.895 69.2892C161.043 69.2892 158.336 69.2306 157.773 69.1134C156.039 68.7384 155.16 68.0001 155.137 66.8986C155.16 66.547 155.43 66.3243 155.945 66.2306L167.371 65.2814L174.895 52.6251C175.762 51.172 176.547 50.4454 177.25 50.4454C177.531 50.4454 177.859 50.4923 178.234 50.5861C179.617 50.8907 180.309 51.3947 180.309 52.0978C180.309 52.7775 179.605 53.8322 178.199 55.2618C176.793 56.6915 175.926 57.6056 175.598 58.004C174.496 59.3634 173.301 61.6368 172.012 64.8243Z" fill="white"/>
</g>
<defs>
<filter id="filter0_d_606_2" x="26.4375" y="50.3048" width="163.531" height="64.1094" filterUnits="userSpaceOnUse" color-interpolation-filters="sRGB">
<feFlood flood-opacity="0" result="BackgroundImageFix"/>
<feColorMatrix in="SourceAlpha" type="matrix" values="0 0 0 0 0 0 0 0 0 0 0 0 0 0 0 0 0 0 127 0" result="hardAlpha"/>
<feOffset dy="4"/>
<feGaussianBlur stdDeviation="2"/>
<feComposite in2="hardAlpha" operator="out"/>
<feColorMatrix type="matrix" values="0 0 0 0 0 0 0 0 0 0 0 0 0 0 0 0 0 0 0.25 0"/>
<feBlend mode="normal" in2="BackgroundImageFix" result="effect1_dropShadow_606_2"/>
<feBlend mode="normal" in="SourceGraphic" in2="effect1_dropShadow_606_2" result="shape"/>
</filter>
</defs>
</svg>
